<svg xmlns="http://www.w3.org/2000/svg" xmlns:xlink="http://www.w3.org/1999/xlink" xml:space="preserve" width="256" height="256"><defs><linearGradient id="c"><stop offset="0" style="stop-color:#2a2630;stop-opacity:1"/><stop offset="1" style="stop-color:#000;stop-opacity:1"/></linearGradient><linearGradient id="b"><stop offset="0" style="stop-color:#3d3846;stop-opacity:1"/><stop offset="1" style="stop-color:#000;stop-opacity:1"/></linearGradient><linearGradient id="a"><stop offset="0" style="stop-color:#fff;stop-opacity:1"/><stop offset="1" style="stop-color:#deddda;stop-opacity:1"/></linearGradient><linearGradient xlink:href="#a" id="e" x1="45.71" x2="58.837" y1="158.719" y2="168.035" gradientUnits="userSpaceOnUse"/><linearGradient xlink:href="#b" id="h" x1="36.219" x2="62.643" y1="146.684" y2="163.79" gradientUnits="userSpaceOnUse"/><linearGradient xlink:href="#c" id="f" x1="45.71" x2="59.459" y1="158.719" y2="167.528" gradientUnits="userSpaceOnUse"/><linearGradient xlink:href="#a" id="d" x1="52.44" x2="58.837" y1="162.164" y2="168.035" gradientUnits="userSpaceOnUse"/><linearGradient id="j" x1="300" x2="428" y1="235" y2="235" gradientTransform="matrix(0 .0876 -.24222 0 106.134 133.87)" gradientUnits="userSpaceOnUse"><stop offset="0" style="stop-color:#f9f06b;stop-opacity:1"/><stop offset="1" style="stop-color:#f5c211;stop-opacity:1"/></linearGradient><clipPath id="g" clipPathUnits="userSpaceOnUse"><path d="m61.825 164.998-8.07-18.986q-.655-1.537-1.311-1.537t-1.312 1.537l-5.57 13.054-1.65-3.324q-.804-1.62-1.608 0l-5.102 10.013a15.744 15.744 0 0 0 24.623-.757" style="display:inline;opacity:1;fill:url(#d);stroke:none;stroke-width:.261937;stroke-linecap:butt;stroke-linejoin:miter;stroke-miterlimit:4;stroke-dasharray:none;stroke-dashoffset:0;stroke-opacity:1;marker:none;marker-start:none;marker-mid:none;marker-end:none;paint-order:normal"/></clipPath><clipPath id="i" clipPathUnits="userSpaceOnUse"><circle cx="-190.112" cy="50.556" r="128.752" style="opacity:.7;fill:#0f0;fill-opacity:1;stroke:none;stroke-width:3.01763;stroke-linecap:round;stroke-linejoin:round;paint-order:markers fill stroke"/></clipPath></defs><g style="display:inline"><path d="m61.825 164.998-8.07-18.986q-.655-1.537-1.311-1.537t-1.312 1.537l-5.57 13.054-1.65-3.324q-.804-1.62-1.608 0l-5.102 10.013a15.744 15.744 0 0 0 24.623-.757" clip-path="url(#g)" style="display:inline;opacity:1;fill:url(#e);stroke:url(#f);stroke-width:.79375;stroke-linecap:round;stroke-linejoin:round;stroke-miterlimit:4;stroke-dasharray:none;stroke-dashoffset:0;stroke-opacity:1;marker:none;marker-start:none;marker-mid:none;marker-end:none;paint-order:normal" transform="translate(-272.1 -1136.837)scale(8.13008)"/><path d="M49.212 139.831c-8.695 0-15.743 7.049-15.743 15.744 0 3.728 1.323 7.335 3.733 10.18l5.102-10.013q.804-1.62 1.608 0l1.65 3.324 5.57-13.054q.656-1.537 1.312-1.537.655 0 1.311 1.537l8.07 18.986a15.74 15.74 0 0 0 3.131-9.423c0-8.695-7.049-15.744-15.744-15.744" style="display:inline;opacity:1;fill:url(#h);stroke:none;stroke-width:.261937;stroke-linecap:butt;stroke-linejoin:miter;stroke-miterlimit:4;stroke-dasharray:none;stroke-dashoffset:0;stroke-opacity:1;marker:none;marker-start:none;marker-mid:none;marker-end:none;paint-order:normal" transform="translate(-272.1 -1136.837)scale(8.13008)"/><path d="M45.556 148.392a2.53 2.476 0 0 1-2.53 2.476 2.53 2.476 0 0 1-2.53-2.476 2.53 2.476 0 0 1 2.53-2.476 2.53 2.476 0 0 1 2.53 2.476z" style="display:inline;fill:#fefefe;stroke:#000;stroke-width:0" transform="translate(-272.1 -1136.837)scale(8.13008)"/></g><g clip-path="url(#i)" style="stroke:none" transform="matrix(.99997 0 0 1.02153 318.106 73.4)"><path d="M64.957 160.148v11.213H33.468v-11.213zm0 0" style="opacity:.7;fill:url(#j);fill-rule:nonzero;stroke:none;stroke-width:.241331" transform="translate(-590.213 -1213.867)scale(8.13008)"/><path d="m36.742 160.148 11.65 11.213h5.219l-11.65-11.213Zm10.436 0 11.652 11.213h5.219l-11.652-11.213Zm10.438 0 7.34 7.065v-5.022l-2.122-2.043zm-24.148 1.872v5.023l4.487 4.318h5.219zm0 0" style="opacity:.7;fill:#000;fill-opacity:1;fill-rule:nonzero;stroke:none;stroke-width:.241331" transform="translate(-590.213 -1213.867)scale(8.13008)"/></g></svg>