<svg xmlns="http://www.w3.org/2000/svg" xmlns:xlink="http://www.w3.org/1999/xlink" xml:space="preserve" width="256" height="256"><defs><linearGradient id="c"><stop offset="0" style="stop-color:#2a2630;stop-opacity:1"/><stop offset="1" style="stop-color:#000;stop-opacity:1"/></linearGradient><linearGradient id="b"><stop offset="0" style="stop-color:#3d3846;stop-opacity:1"/><stop offset="1" style="stop-color:#000;stop-opacity:1"/></linearGradient><linearGradient id="a"><stop offset="0" style="stop-color:#fff;stop-opacity:1"/><stop offset="1" style="stop-color:#deddda;stop-opacity:1"/></linearGradient><linearGradient xlink:href="#a" id="e" x1="45.71" x2="58.837" y1="158.719" y2="168.035" gradientUnits="userSpaceOnUse"/><linearGradient xlink:href="#b" id="h" x1="36.219" x2="62.643" y1="146.684" y2="163.79" gradientUnits="userSpaceOnUse"/><linearGradient xlink:href="#c" id="f" x1="45.71" x2="59.459" y1="158.719" y2="167.528" gradientUnits="userSpaceOnUse"/><linearGradient xlink:href="#a" id="d" x1="52.44" x2="58.837" y1="162.164" y2="168.035" gradientUnits="userSpaceOnUse"/><clipPath id="g" clipPathUnits="userSpaceOnUse"><path d="m61.825 164.998-8.07-18.986q-.655-1.537-1.311-1.537t-1.312 1.537l-5.57 13.054-1.65-3.324q-.804-1.62-1.608 0l-5.102 10.013a15.744 15.744 0 0 0 24.623-.757" style="display:inline;opacity:1;fill:url(#d);stroke:none;stroke-width:.261937;stroke-linecap:butt;stroke-linejoin:miter;stroke-miterlimit:4;stroke-dasharray:none;stroke-dashoffset:0;stroke-opacity:1;marker:none;marker-start:none;marker-mid:none;marker-end:none;paint-order:normal"/></clipPath></defs><g transform="translate(-272.1 -1136.837)scale(8.13008)"><path d="m61.825 164.998-8.07-18.986q-.655-1.537-1.311-1.537t-1.312 1.537l-5.57 13.054-1.65-3.324q-.804-1.62-1.608 0l-5.102 10.013a15.744 15.744 0 0 0 24.623-.757" clip-path="url(#g)" style="display:inline;opacity:1;fill:url(#e);stroke:url(#f);stroke-width:.79375;stroke-linecap:round;stroke-linejoin:round;stroke-miterlimit:4;stroke-dasharray:none;stroke-dashoffset:0;stroke-opacity:1;marker:none;marker-start:none;marker-mid:none;marker-end:none;paint-order:normal"/><path d="M49.212 139.831c-8.695 0-15.743 7.049-15.743 15.744 0 3.728 1.323 7.335 3.733 10.18l5.102-10.013q.804-1.62 1.608 0l1.65 3.324 5.57-13.054q.656-1.537 1.312-1.537.655 0 1.311 1.537l8.07 18.986a15.74 15.74 0 0 0 3.131-9.423c0-8.695-7.049-15.744-15.744-15.744" style="display:inline;opacity:1;fill:url(#h);stroke:none;stroke-width:.261937;stroke-linecap:butt;stroke-linejoin:miter;stroke-miterlimit:4;stroke-dasharray:none;stroke-dashoffset:0;stroke-opacity:1;marker:none;marker-start:none;marker-mid:none;marker-end:none;paint-order:normal"/><ellipse cx="43.026" cy="148.392" rx="2.53" ry="2.476" style="fill:#fefefe;stroke:#000;stroke-width:0"/></g></svg>